<svg xmlns="http://www.w3.org/2000/svg" id="Group_3904" width="74.69" height="40" data-name="Group 3904" viewBox="0 0 74.69 40">
    <defs>
        <clipPath id="clip-path">
            <path id="Rectangle_2706" fill="none" d="M0 0H74.69V40H0z" data-name="Rectangle 2706"/>
        </clipPath>
        <style>
            .cls-3{fill:#313133}.cls-4{fill:#007cc7}.cls-5{fill:#ec411b}.cls-6{fill:#fc9213}
        </style>
    </defs>
    <g id="Group_3903" clip-path="url(#clip-path)" data-name="Group 3903">
        <path id="Path_3975" d="M410.144 132.376h-1.705a.166.166 0 0 1-.188-.188v-.09a.166.166 0 0 1 .188-.188h3.936a.166.166 0 0 1 .188.188v.09a.166.166 0 0 1-.188.188h-1.712V137c0 .126-.06.188-.18.188h-.15a.165.165 0 0 1-.188-.188z" class="cls-3" data-name="Path 3975" transform="translate(-367.666 -118.798)"/>
        <path id="Path_3976" d="M481.763 133.7a2.759 2.759 0 0 1 .2-1.062 2.623 2.623 0 0 1 .563-.856 2.594 2.594 0 0 1 .852-.571 2.858 2.858 0 0 1 2.133 0 2.583 2.583 0 0 1 1.419 1.424 2.734 2.734 0 0 1 .206 1.066 2.864 2.864 0 0 1-.206 1.093 2.736 2.736 0 0 1-.567.879 2.594 2.594 0 0 1-.852.582 2.786 2.786 0 0 1-2.126 0 2.586 2.586 0 0 1-.853-.582 2.742 2.742 0 0 1-.567-.879 2.861 2.861 0 0 1-.206-1.093m.541 0a2.434 2.434 0 0 0 .165.905 2.244 2.244 0 0 0 .451.721 2.052 2.052 0 0 0 .68.477 2.188 2.188 0 0 0 1.7 0 2.058 2.058 0 0 0 .68-.477 2.258 2.258 0 0 0 .451-.721 2.436 2.436 0 0 0 .165-.905 2.312 2.312 0 0 0-.165-.879 2.151 2.151 0 0 0-.451-.7 2.086 2.086 0 0 0-.68-.462 2.247 2.247 0 0 0-1.709 0 2.1 2.1 0 0 0-1.13 1.164 2.33 2.33 0 0 0-.161.875" class="cls-3" data-name="Path 3976" transform="translate(-433.87 -117.981)"/>
        <path id="Path_3977" d="M572.044 132.1c0-.125.06-.188.18-.188h.158c.12 0 .18.063.18.188v2.1h.894l1.344-2.163a.228.228 0 0 1 .218-.128h.188a.16.16 0 0 1 .147.064.147.147 0 0 1-.019.161l-1.442 2.269v.015l1.547 2.553a.14.14 0 0 1 .023.154.153.153 0 0 1-.143.064h-.21a.221.221 0 0 1-.218-.128l-1.434-2.4h-.894V137c0 .126-.06.188-.18.188h-.158c-.12 0-.18-.062-.18-.188z" class="cls-3" data-name="Path 3977" transform="translate(-515.176 -118.797)"/>
        <path id="Path_3978" d="M637.624 133.7a2.761 2.761 0 0 1 .2-1.062 2.622 2.622 0 0 1 .563-.856 2.593 2.593 0 0 1 .852-.571 2.858 2.858 0 0 1 2.133 0 2.583 2.583 0 0 1 1.419 1.424A2.734 2.734 0 0 1 643 133.7a2.864 2.864 0 0 1-.206 1.093 2.735 2.735 0 0 1-.567.879 2.594 2.594 0 0 1-.852.582 2.786 2.786 0 0 1-2.126 0 2.586 2.586 0 0 1-.853-.582 2.739 2.739 0 0 1-.567-.879 2.86 2.86 0 0 1-.206-1.093m.541 0a2.437 2.437 0 0 0 .165.905 2.244 2.244 0 0 0 .451.721 2.052 2.052 0 0 0 .68.477 2.188 2.188 0 0 0 1.7 0 2.059 2.059 0 0 0 .68-.477 2.26 2.26 0 0 0 .451-.721 2.437 2.437 0 0 0 .165-.905 2.313 2.313 0 0 0-.165-.879 2.153 2.153 0 0 0-.451-.7 2.086 2.086 0 0 0-.68-.462 2.247 2.247 0 0 0-1.708 0 2.1 2.1 0 0 0-1.13 1.164 2.331 2.331 0 0 0-.161.875" class="cls-3" data-name="Path 3978" transform="translate(-574.237 -117.981)"/>
        <path id="Path_3979" d="M413.316 218.043a.275.275 0 0 1 .307-.315h.346a.276.276 0 0 1 .308.317v1.861h.7l1.126-1.959a.4.4 0 0 1 .368-.218h.368a.256.256 0 0 1 .248.109.263.263 0 0 1-.03.266l-1.292 2.163v.016l1.389 2.4a.258.258 0 0 1 .034.27.269.269 0 0 1-.251.106h-.413a.393.393 0 0 1-.368-.218l-1.179-2.11h-.7v2.013a.276.276 0 0 1-.308.315h-.346a.275.275 0 0 1-.307-.315z" class="cls-3" data-name="Path 3979" transform="translate(-372.228 -196.083)"/>
        <path id="Path_3980" d="M494.19 217.984a.346.346 0 0 1 .353-.256h.48a.332.332 0 0 1 .353.256l1.668 4.716a.272.272 0 0 1-.012.263.283.283 0 0 1-.244.1h-.345a.332.332 0 0 1-.353-.255l-.376-1.113h-1.87l-.368 1.1a.333.333 0 0 1-.353.263h-.345a.283.283 0 0 1-.244-.1.272.272 0 0 1-.012-.263zm1.284 2.921l-.474-1.427c-.025-.075-.05-.16-.075-.256s-.048-.184-.068-.27-.048-.195-.068-.3h-.015c-.03.1-.055.205-.075.3s-.048.176-.068.27a2.577 2.577 0 0 1-.068.256l-.481 1.427z" class="cls-3" data-name="Path 3980" transform="translate(-443.536 -196.083)"/>
        <path id="Path_3981" d="M584.19 218.043a.275.275 0 0 1 .307-.315h.346a.275.275 0 0 1 .308.315v4.7a.276.276 0 0 1-.308.315h-.343a.275.275 0 0 1-.307-.315z" class="cls-3" data-name="Path 3981" transform="translate(-526.115 -196.083)"/>
        <path id="Path_3982" d="M644.785 218.043a.275.275 0 0 1 .308-.315h.405a.391.391 0 0 1 .376.21l1.893 2.869c.05.081.1.169.158.264s.1.184.143.27.1.193.143.292h.015l-.03-.292c-.01-.092-.016-.176-.019-.27s0-.183 0-.264v-2.763a.279.279 0 0 1 .315-.315h.338a.278.278 0 0 1 .315.315v4.7a.279.279 0 0 1-.315.315h-.406a.385.385 0 0 1-.368-.211l-1.9-2.861q-.075-.121-.154-.264t-.139-.27a3.072 3.072 0 0 1-.151-.292h-.015c.005.1.013.2.022.292s.018.176.023.27.008.183.008.264v2.756a.276.276 0 0 1-.308.315h-.346a.276.276 0 0 1-.308-.315z" class="cls-3" data-name="Path 3982" transform="translate(-580.686 -196.083)"/>
        <path id="Path_3983" d="M296.039 267.374l-.9 3.332a.259.259 0 0 0 .182.317.25.25 0 0 0 .067.009.259.259 0 0 0 .249-.191l.821-3.044z" class="cls-4" data-name="Path 3983" transform="translate(-265.791 -240.794)"/>
        <path id="Path_3984" d="M242.173 169.829a.258.258 0 0 1-.183-.076l-9.333-9.342a.258.258 0 0 1 .365-.365l9.333 9.342a.259.259 0 0 1-.183.441" class="cls-5" data-name="Path 3984" transform="translate(-209.461 -144.068)"/>
        <path id="Path_3985" d="M288.8 152.425a.258.258 0 0 1-.183-.076l-5.446-5.455a.258.258 0 1 1 .366-.365l5.446 5.455a.258.258 0 0 1-.183.441" class="cls-5" data-name="Path 3985" transform="translate(-254.953 -131.895)"/>
        <path id="Path_3986" d="M267.51 164.437l-7.272-7.28-.576.154 7.482 7.491a.258.258 0 0 0 .366-.365" class="cls-5" data-name="Path 3986" transform="translate(-233.849 -141.534)"/>
        <path id="Path_3987" d="M312.93 145.838l-2.23-2.238-.576.153 2.437 2.445a.258.258 0 1 0 .365-.365" class="cls-5" data-name="Path 3987" transform="translate(-279.297 -129.329)"/>
        <path id="Path_3988" d="M212.6 173.629l-2.922-2.923-.576.154 3.133 3.134a.258.258 0 0 0 .365-.365" class="cls-5" data-name="Path 3988" transform="translate(-188.311 -153.736)"/>
        <path id="Path_3989" d="M261.88 221.629a.258.258 0 0 1-.183-.076l-1.678-1.679a.258.258 0 0 1 .365-.365l1.678 1.679a.259.259 0 0 1-.183.441" class="cls-5" data-name="Path 3989" transform="translate(-234.102 -197.62)"/>
        <path id="Path_3990" d="M299.039 258.715a.259.259 0 0 1-.183-.076l-1.818-1.827a.258.258 0 0 1 .366-.365l1.818 1.827a.258.258 0 0 1-.183.441" class="cls-5" data-name="Path 3990" transform="translate(-267.441 -230.886)"/>
        <path id="Path_3991" d="M182.478 119.576a.258.258 0 0 1-.067-.507l12.757-3.413a.258.258 0 1 1 .133.5l-12.757 3.413a.247.247 0 0 1-.067.009" class="cls-6" data-name="Path 3991" transform="translate(-164.105 -104.15)"/>
        <path id="Path_3992" d="M196.028 81.976a.259.259 0 0 1-.067-.508l7.447-1.989a.259.259 0 0 1 .134.5l-7.447 1.989a.288.288 0 0 1-.067.008" class="cls-6" data-name="Path 3992" transform="translate(-176.308 -71.572)"/>
        <path id="Path_3993" d="M204.13 97.021a.261.261 0 0 0-.316-.183l-9.94 2.658-.155.577 10.228-2.735a.259.259 0 0 0 .183-.317" class="cls-6" data-name="Path 3993" transform="translate(-174.461 -87.205)"/>
        <path id="Path_3994" d="M210.725 65.11a.261.261 0 0 0-.316-.183l-3.047.811-.156.577 3.336-.888a.259.259 0 0 0 .183-.317" class="cls-6" data-name="Path 3994" transform="translate(-186.607 -58.466)"/>
        <path id="Path_3995" d="M167.331 211.186a.257.257 0 0 0 .074.074z" class="cls-4" data-name="Path 3995" transform="translate(-150.696 -190.192)"/>
        <path id="Path_3996" d="M184.634 163.557a.256.256 0 0 0-.316-.182l-3.992 1.069-.154.575 4.28-1.146a.258.258 0 0 0 .183-.316" class="cls-6" data-name="Path 3996" transform="translate(-162.26 -147.125)"/>
        <path id="Path_3997" d="M247.659 150.961a.258.258 0 0 1-.067-.507l2.293-.614a.258.258 0 1 1 .133.5l-2.293.614a.248.248 0 0 1-.067.009" class="cls-6" data-name="Path 3997" transform="translate(-222.806 -134.935)"/>
        <path id="Path_3998" d="M298.154 136.947a.259.259 0 0 1-.066-.508l2.491-.661a.259.259 0 0 1 .133.5l-2.491.661a.278.278 0 0 1-.066.009" class="cls-6" data-name="Path 3998" transform="translate(-268.281 -122.272)"/>
        <path id="Path_3999" d="M80.61 153.093a.258.258 0 0 1-.183-.076l-9.334-9.341a.258.258 0 0 1 .365-.365l9.334 9.341a.259.259 0 0 1-.183.441" class="cls-5" data-name="Path 3999" transform="translate(-63.958 -128.997)"/>
        <path id="Path_4000" d="M65.314 201.825a.258.258 0 0 1-.183-.076l-5.446-5.454a.258.258 0 1 1 .366-.365l5.446 5.454a.258.258 0 0 1-.183.441" class="cls-5" data-name="Path 4000" transform="translate(-53.684 -176.385)"/>
        <path id="Path_4001" d="M71.242 175.116l-7.483-7.491a.258.258 0 0 0-.366.365l7.273 7.28z" class="cls-5" data-name="Path 4001" transform="translate(-57.023 -150.893)"/>
        <path id="Path_4002" d="M66.48 234.39l-2.437-2.445a.258.258 0 1 0-.365.365l2.226 2.233z" class="cls-5" data-name="Path 4002" transform="translate(-57.279 -208.82)"/>
        <path id="Path_4003" d="M161.213 201.031l-3.133-3.131a.258.258 0 0 0-.365.365l2.922 2.924z" class="cls-5" data-name="Path 4003" transform="translate(-141.968 -178.155)"/>
        <path id="Path_4004" d="M122.6 163.04a.259.259 0 0 1-.183-.076l-1.678-1.679a.258.258 0 0 1 .366-.365l1.678 1.679a.258.258 0 0 1-.183.441" class="cls-5" data-name="Path 4004" transform="translate(-108.665 -144.855)"/>
        <path id="Path_4005" d="M84.311 124.779a.259.259 0 0 1-.183-.076l-1.818-1.827a.258.258 0 1 1 .366-.365l1.818 1.827a.258.258 0 0 1-.183.441" class="cls-5" data-name="Path 4005" transform="translate(-74.059 -110.264)"/>
        <path id="Path_4006" d="M87.2 251.136a.258.258 0 0 1-.067-.507l12.757-3.413a.261.261 0 0 1 .316.183.257.257 0 0 1-.183.316l-12.757 3.413a.28.28 0 0 1-.067.009" class="cls-6" data-name="Path 4006" transform="translate(-78.298 -222.633)"/>
        <path id="Path_4007" d="M127.066 300.211a.259.259 0 0 1-.066-.511l7.446-1.99a.259.259 0 0 1 .134.5l-7.447 1.99a.285.285 0 0 1-.067.009" class="cls-6" data-name="Path 4007" transform="translate(-114.201 -268.11)"/>
        <path id="Path_4008" d="M114.568 272.919l-10.229 2.735a.259.259 0 0 0 .067.508.287.287 0 0 0 .067-.009l9.94-2.658z" class="cls-6" data-name="Path 4008" transform="translate(-93.795 -245.788)"/>
        <path id="Path_4009" d="M182 222.364l-4.28 1.146a.258.258 0 0 0 .067.507.247.247 0 0 0 .067-.009l3.992-1.069z" class="cls-6" data-name="Path 4009" transform="translate(-159.88 -200.258)"/>
        <path id="Path_4010" d="M163.517 323.412l-3.336.888a.258.258 0 0 0 .066.508.281.281 0 0 0 .066-.009l3.047-.811z" class="cls-6" data-name="Path 4010" transform="translate(-144.085 -291.261)"/>
        <path id="Path_4011" d="M127.276 242.286a.258.258 0 0 1-.067-.507l2.293-.614a.258.258 0 1 1 .134.5l-2.293.614a.246.246 0 0 1-.067.009" class="cls-6" data-name="Path 4011" transform="translate(-114.391 -217.182)"/>
        <path id="Path_4012" d="M74.792 255.936a.258.258 0 0 1-.066-.508l2.491-.662a.259.259 0 0 1 .133.5l-2.491.662a.278.278 0 0 1-.066.009" class="cls-6" data-name="Path 4012" transform="translate(-67.124 -229.432)"/>
        <path id="Path_4013" d="M214.925 221.853a.251.251 0 0 1-.067-.009.258.258 0 0 1-.182-.316l3.423-12.754a.258.258 0 0 1 .5.133l-3.423 12.754a.258.258 0 0 1-.249.192" class="cls-4" data-name="Path 4013" transform="translate(-193.327 -187.848)"/>
        <path id="Path_4014" d="M266.2 253.533a.249.249 0 0 1-.067-.009.258.258 0 0 1-.182-.316l2-7.443a.258.258 0 0 1 .5.133l-2 7.443a.259.259 0 0 1-.25.192" class="cls-4" data-name="Path 4014" transform="translate(-239.505 -221.161)"/>
        <path id="Path_4015" d="M242.329 230.449l-2.746 10.226a.258.258 0 0 0 .182.316.25.25 0 0 0 .067.009.258.258 0 0 0 .249-.192l2.668-9.938z" class="cls-4" data-name="Path 4015" transform="translate(-215.758 -207.54)"/>
        <path id="Path_4016" d="M219.79 193.434l-1.148 4.28a.258.258 0 0 0 .183.316.249.249 0 0 0 .067.009.259.259 0 0 0 .25-.192l1.07-3.992z" class="cls-4" data-name="Path 4016" transform="translate(-196.899 -174.204)"/>
        <path id="Path_4017" d="M205.356 264.822a.25.25 0 0 1-.067-.009.258.258 0 0 1-.182-.316l.615-2.293a.258.258 0 0 1 .5.133l-.615 2.293a.259.259 0 0 1-.25.192" class="cls-4" data-name="Path 4017" transform="translate(-184.709 -235.966)"/>
        <path id="Path_4018" d="M191.3 315.537a.259.259 0 0 1-.25-.326l.673-2.488a.258.258 0 0 1 .5.135l-.673 2.488a.259.259 0 0 1-.249.191" class="cls-4" data-name="Path 4018" transform="translate(-172.051 -281.463)"/>
        <path id="Path_4019" d="M148.64 73.57a.249.249 0 0 1-.067-.009.258.258 0 0 1-.182-.316l3.424-12.754a.258.258 0 0 1 .5.133l-3.424 12.754a.258.258 0 0 1-.249.192" class="cls-4" data-name="Path 4019" transform="translate(-133.63 -54.305)"/>
        <path id="Path_4020" d="M111.677 84.681a.25.25 0 0 1-.067-.009.258.258 0 0 1-.182-.316l2-7.444a.258.258 0 0 1 .5.133l-2 7.444a.259.259 0 0 1-.249.192" class="cls-4" data-name="Path 4020" transform="translate(-100.342 -69.094)"/>
        <path id="Path_4021" d="M134.141 65.794a.257.257 0 0 0-.317.182l-2.669 9.937.422.422 2.746-10.225a.258.258 0 0 0-.182-.316" class="cls-4" data-name="Path 4021" transform="translate(-118.118 -59.245)"/>
        <path id="Path_4022" d="M95.319 98.192a.256.256 0 0 0-.317.182l-.821 3.045.421.423.9-3.333a.258.258 0 0 0-.182-.317" class="cls-4" data-name="Path 4022" transform="translate(-84.818 -88.422)"/>
        <path id="Path_4023" d="M168.6 167.212l1.148-4.28a.258.258 0 0 0-.5-.134l-1.07 3.991z" class="cls-4" data-name="Path 4023" transform="translate(-151.456 -146.443)"/>
        <path id="Path_4024" d="M186.458 114.905a.245.245 0 0 1-.067-.009.258.258 0 0 1-.183-.316l.615-2.293a.258.258 0 0 1 .5.133l-.615 2.293a.259.259 0 0 1-.25.192" class="cls-4" data-name="Path 4024" transform="translate(-167.69 -100.952)"/>
        <path id="Path_4025" d="M199.935 62.615a.252.252 0 0 1-.068-.009.258.258 0 0 1-.182-.317l.672-2.488a.258.258 0 0 1 .5.135l-.672 2.488a.259.259 0 0 1-.25.191" class="cls-4" data-name="Path 4025" transform="translate(-179.826 -53.684)"/>
    </g>
</svg>
